<svg version="1.1" xmlns="http://www.w3.org/2000/svg" xmlns:xlink="http://www.w3.org/1999/xlink"
	 viewBox="0 0 128 128" enable-background="new 0 0 128 128" xml:space="preserve">
	<path d="M95.7197266,24.0004883c-2.1206055,0-4.2402344,0.8071289-5.8564453,2.425293L77.3569336,38.9316406
		C73.1938477,36.7124023,68.597168,35.6035156,64,35.6035156s-9.1943359,1.1088867-13.3564453,3.328125L38.137207,26.4257812
		c-1.6166992-1.6181641-3.7368164-2.425293-5.8564453-2.425293c-2.1186523,0-4.237793,0.8071289-5.8544922,2.425293
		c-3.2353516,3.2333984-3.2353516,8.4770508,0,11.7114258l12.5053711,12.5063477
		c-4.4384766,8.3237305-4.4384766,18.3901367,0,26.7133789L26.4262695,89.862793
		c-3.2353516,3.234375-3.2353516,8.4780273,0,11.7124023C28.0429688,103.1918945,30.1611328,104,32.2807617,104
		c2.1201172,0,4.2397461-0.8081055,5.8564453-2.4248047l12.5063477-12.5068359
		C54.8056641,91.2880859,59.402832,92.3974609,64,92.3974609s9.1938477-1.109375,13.3569336-3.3291016l12.5063477,12.5068359
		C91.4794922,103.1918945,93.6000977,104,95.7197266,104c2.1181641,0,4.237793-0.8081055,5.8554688-2.4248047
		c3.2333984-3.234375,3.2333984-8.4780273,0-11.7124023L89.0683594,77.3569336
		c4.4384766-8.3242188,4.4384766-18.3896484,0-26.7133789l12.5068359-12.5063477
		c3.2333984-3.234375,3.2333984-8.4780273,0-11.7114258C99.9575195,24.8076172,97.8388672,24.0004883,95.7197266,24.0004883z"/>
</svg>
