<svg version="1.1" xmlns="http://www.w3.org/2000/svg" xmlns:xlink="http://www.w3.org/1999/xlink"
	 viewBox="0 0 160 160" enable-background="new 0 0 160 160" xml:space="preserve">
<path d="M80,4.0341797C38.0458984,4.0341797,4.0341797,38.0449219,4.0341797,80
	c0,41.9536133,34.0117188,75.965332,75.9658203,75.965332c41.9545898,0,75.9658203-34.0117188,75.9658203-75.965332
	C155.9658203,38.0449219,121.9545898,4.0341797,80,4.0341797z M112.9790039,104.0214844
	c-7.9760742,10.9487305-20.4223633,16.7612305-33.03125,16.762207c-8.3320312,0.0004883-16.7329102-2.5366211-23.9677734-7.8071289
	c-8.8085938-6.4160156-14.5917969-15.878418-16.2836914-26.644043s0.9101562-21.5454102,7.3261719-30.3540039
	c1.4628906-2.0097656,4.2763672-2.4516602,6.2866211-0.987793c2.0087891,1.4628906,2.4511719,4.277832,0.987793,6.2866211
	c-5.0004883,6.8652344-7.0283203,15.2670898-5.7094727,23.6577148c1.3183594,8.3911133,5.8256836,15.7661133,12.6914062,20.7670898
	c14.171875,10.3232422,34.1015625,7.1923828,44.425293-6.9794922c10.3212891-14.1713867,7.1899414-34.1010742-6.9804688-44.4257812
	c-6.6987305-4.8798828-14.7695312-6.9111328-22.9106445-5.8154297l9.2333984,9.2329102
	c1.7573242,1.7573242,1.7573242,4.6069336,0,6.3642578c-0.8789062,0.878418-2.0302734,1.3178711-3.1821289,1.3178711
	s-2.3032227-0.4394531-3.1821289-1.3178711L61.4838867,46.8803711c-0.84375-0.8442383-1.3178711-1.9887695-1.3178711-3.1821289
	s0.4741211-2.3378906,1.3178711-3.1821289l17.1982422-17.1977539c1.7583008-1.7568359,4.6069336-1.7568359,6.3642578,0
	c1.7573242,1.7578125,1.7573242,4.6069336,0,6.3642578l-9.8139648,9.8134766
	c10.1484375-1.1850586,20.4912109,1.480957,28.7905273,7.5263672
	C122.2041016,60.2695312,126.2211914,85.8388672,112.9790039,104.0214844z"/>
</svg>
